<svg xmlns="http://www.w3.org/2000/svg" width="3.2in" height="2.8in" viewBox="0 0 231.2 204.7">
  <defs>
    <style>
      .a {
        fill: #999898;
      }
    </style>
  </defs>
  <title>jaraco_concept_outline_next2</title>
  <polygon points="230.5 84.1 216.5 50.7 216.9 49.3 217 47.8 215.6 42 212.7 37.2 200.7 26.2 162.5 2.3 156.5 0.5 150.6 0 144.8 0.7 139.2 2.6 93 4 61.7 11.7 34.7 25.4 37 28.8 63.2 15.5 96.6 7.7 97 13.3 96 17.8 77.8 46.2 77.2 46.1 65.7 46.6 68 40.9 71.3 35.7 68.1 33.3 63.9 40 59.5 54.9 58.2 65.2 59.1 85.3 57.6 95.9 54.3 105 57.8 107 59.6 102.9 62.6 91.4 63.3 76 62.4 67.7 67.2 69.5 68.9 70.9 69.7 72.7 71 88 74.9 87 74.1 81.9 79.1 80.1 77.6 76.2 73.8 77.5 73.7 72.4 72.3 68.6 69.4 66 65.8 64.4 62.4 63.5 64.5 50.9 76.7 50.1 77.2 61.2 81.2 61 80.6 52 80.9 49.6 81.7 47.3 96.7 25.8 97.8 26 100.9 27.4 103.8 29.9 113.8 15.1 110.3 13.1 103.1 24 98.6 22 101 13.4 100.6 7.3 131.6 7.5 127.4 11.4 126.8 11.1 126.1 10.9 125.4 10.9 124.6 11 122.7 11.8 121.1 13.2 116.5 20.7 112.6 31.4 116.4 32.7 122 19 124.6 15.5 125.4 15 125.5 15.1 125.8 15.4 126.9 17.2 127.9 20.5 128.3 24.2 132.3 23.9 131.8 19.6 130.5 15.5 129.9 14.4 134.9 9.9 140.1 6.7 140.3 6.7 137.9 12.5 137.5 41.8 134 40 130.5 38.9 131.9 34.6 132.2 32.4 132.1 30.4 128.1 31.2 128.1 32.7 127.1 36.6 120.5 46 119.9 47.7 123.8 48.8 124.2 47.7 128.4 42.4 132.9 43.7 135.3 44.9 137.3 46.5 136.4 50.8 134.7 54.8 138.2 56.8 140.6 50.9 141.4 16.3 143.3 9.7 147.5 4.1 154.1 4 160.9 5.8 203.1 33.3 194.9 38 191.3 31.3 185.9 24.6 183 27.4 188.7 34.6 192 41.7 192.9 48.7 191.4 55.8 195.2 57.2 196.9 49.5 196.3 41.9 206.5 36.1 210.9 41.3 212.3 44.3 213 47.7 212.7 49.1 211.9 50.5 210.7 52 194.4 62.8 185.8 66.4 175.4 48.3 185.1 46.8 184.9 42.8 171.5 45.1 171.3 46.5 171.4 49 178 62.6 184.2 71.2 195.6 67.1 211.4 57.1 214.1 54.7 227.7 88.3 227.5 104.1 219.5 118 215.1 121.5 210.4 124 205.4 125.4 200.2 125.8 184.7 123.2 181.3 123.5 179.1 124.9 177.7 127.5 177.3 130 177.7 132.4 178.8 135.1 172.7 139.6 162.1 128.4 164.2 122.5 164.8 116.3 174.7 114 198.1 113.4 205.8 111.5 212.2 108 214.2 106.1 215.7 104 216.7 101.6 217.2 98.9 216.6 94.2 219.2 92.3 216.5 89.3 214.6 90.7 205.7 93.6 206.9 97.5 212.7 96 213.1 98.9 212.8 100.6 212.1 102.2 211.1 103.6 209.7 104.9 204 107.9 190.2 109.9 179.1 109.4 164.2 112.2 162.9 108.6 167.3 104.8 170.2 99.2 171.2 92.5 170.3 85.8 167.4 80.1 164.2 82.6 166.4 87.1 167.1 92.5 166.4 97.8 164.2 102.1 161.8 104.4 159.1 106.1 156 107.2 152 107.9 148.5 102.4 144.3 98.5 127.3 89.8 125.4 93.3 133.6 97.2 132.5 100.9 132.7 119.1 136.7 119.1 136.4 102 137.3 98.9 143.4 102.8 145.9 105.4 148 108.8 146 109.7 144.3 111 143.1 112.9 142.6 115.4 146.6 115.4 147 114.1 148.1 113.1 150 112.3 159.3 110.3 160.7 116.4 159.9 122.7 157.2 128.6 153.2 133.5 155.9 136.5 160 131.8 176.6 149.4 180 147.2 175.6 142.3 181.5 137.9 196.4 145 194.7 150.2 198.4 151.8 200.8 142.6 200.9 138.1 200.2 133.9 196.3 135 196.9 140.9 187.9 137.1 184.2 134.8 182.2 132.6 181.5 131 181.2 129.6 181.4 128.3 182.1 127 184 126.8 201.5 129.5 206.9 128.8 209.7 137.9 207.5 146.4 202.4 153.7 192.5 162.5 185.4 166.8 177.8 169.8 169.5 170.9 160.4 170.5 158.4 170.9 156.6 171.8 155.5 172.9 154.7 174.4 153.7 178.9 153.7 182.7 161.5 201.6 165.1 199.7 158.4 185.3 157.7 182.4 157.7 179.4 158.3 176.5 158.7 175.6 159.2 175 160 174.6 169.7 174.9 179 173.7 187.3 170.4 194.9 165.8 207.9 153.6 212.7 144.7 213.7 136 210.9 127.6 216.6 124.7 221.8 120.6 231.2 103.2 230.5 84.1"/>
  <polygon points="80 30.7 84.6 20.3 81.2 18.1 80 20.5 76 20.1 50.6 26 45.7 28.6 40.2 32.9 42.6 36.2 48.8 31.4 64.5 26 75.5 24.2 78.8 24.4 76.4 29.1 80 30.7"/>
  <polygon points=/>
</svg>
