<svg xmlns="http://www.w3.org/2000/svg" width="3.2in" height="2.8in" viewBox="0 0 231.2 204.7">
  <path class="a" d="M92.5,105.6l5-1.8L96,99.9l-3.8,1.3V96.1l-1.4-3.8-2.9-2.6-3.6-1.6-3.4-.9,2.1-12.6,12.2-.8.5,11.1,4-.2-.6-9,.3-2.4.8-2.3,15-21.5,1.1.2,3.1,1.4,2.9,2.5,10-14.8-3.5-2-7.2,10.9-4.5-2,2.4-8.6L119,31l31,.2-4.2,3.9-.6-.3-.7-.2H143l-1.9.8-1.6,1.4-4.6,7.5L131,55.1l3.8,1.3,5.6-13.7,2.6-3.5.8-.5h.1l.3.3,1.1,1.8,1,3.3.4,3.7,4-.3-.5-4.3-1.3-4.1-.6-1.1,5-4.5,5.2-3.2h.2l-2.4,5.8-.4,29.3-3.5-1.8-3.5-1.1,1.4-4.3.3-2.2v-2l-4,.8v1.5l-1,3.9-6.6,9.4-.6,1.7,3.9,1.1.4-1.1,4.2-5.3,4.5,1.3,2.4,1.2,2,1.6-.9,4.3-1.7,4,3.5,2,2.4-5.9.8-34.6,1.9-6.6,4.2-5.6h6.6l6.8,1.8L221.5,57l-8.2,4.7L209.7,55l-5.4-6.7-2.9,2.8,5.7,7.2,3.3,7.1.9,7-1.5,7.1,3.8,1.4,1.7-7.7-.6-7.6,10.2-5.8,4.4,5.2,1.4,3,.7,3.4-.3,1.4-.8,1.4-1.2,1.5L212.8,86.5l-8.6,3.6L193.8,72l9.7-1.5-.2-4-13.4,2.3-.2,1.4v2.5l6.6,13.6,6.2,8.6L214,90.8l15.8-10,2.7-2.4L246.1,112l-.2,15.8-8,13.9-4.4,3.5-4.7,2.5-5,1.4-5.2.4-15.5-2.6-3.4.3-2.2,1.4-1.4,2.6-.4,2.5.4,2.4,1.1,2.7-6.1,4.5-10.6-11.2,2.1-5.9.6-6.2,9.9-2.3,23.4-.6,7.7-1.9,6.4-3.5,2-1.9,1.5-2.1,1-2.4.5-2.7-.6-4.7,2.6-1.9-2.7-3-1.9,1.4-8.9,2.9,1.2,3.9,5.8-1.5.4,2.9-.3,1.7-.7,1.6-1,1.4-1.4,1.3-5.7,3-13.8,2-11.1-.5-14.9,2.8-1.3-3.6,4.4-3.8,2.9-5.6,1-6.7-.9-6.7-2.9-5.7-3.2,2.5,2.2,4.5.7,5.4-.7,5.3-2.2,4.3-2.4,2.3-2.7,1.7-3.1,1.1-4,.7-3.5-5.5-4.2-3.9-17-8.7-1.9,3.5,8.2,3.9-1.1,3.7.2,18.2h4l-.3-17.1.9-3.1,6.1,3.9,2.5,2.6,2.1,3.4-2,.9-1.7,1.3-1.2,1.9-.5,2.5h4l.4-1.3,1.1-1,1.9-.8,9.3-2,1.4,6.1-.8,6.3-2.7,5.9-4,4.9,2.7,3,4.1-4.7L195,173.1l3.4-2.2L194,166l5.9-4.4,14.9,7.1-1.7,5.2,3.7,1.6,2.4-9.2v-4.5l-.7-4.2-3.9,1.1.6,5.9-9-3.8-3.7-2.3-2-2.2-.7-1.6-.3-1.4.2-1.3.7-1.3,1.9-.2,17.5,2.7,5.4-.7,2.8,9.1-2.2,8.5-5.1,7.3-9.9,8.8-7.1,4.3-7.6,3-8.3,1.1-9.1-.4-2,.4-1.8.9-1.1,1.1-.8,1.5-1,4.5v3.8l7.8,18.9,3.6-1.9L176.8,209l-.7-2.9v-3l.6-2.9.4-.9.5-.6.8-.4,9.7.3,9.3-1.2,8.3-3.3,7.6-4.6,13-12.2,4.8-8.9,1-8.7-2.8-8.4,5.7-2.9,5.2-4.1,9.4-17.4-.7-19.1-14-33.4h0l.4-1.4V71.5L234,65.7l-2.9-4.8-12-11L180.9,26l-6-1.8-5.9-.5-5.8.7-5.6,1.9-46.2,1.4L80.1,35.4l-27,13.7,2.3,3.4L81.6,39.2,115,31.4l.4,5.6-1,4.5L96.2,69.9h-.6l-11.5.5,2.3-5.7,3.3-5.2L86.5,57l-4.2,6.7L77.9,78.6,76.6,88.9l.9,20.1L76,119.6l-3.3,9.1,3.5,2,1.8-4.1,3-11.5.7-15.4-.9-8.3,4.8,1.8,1.7,1.4.8,1.8,1.3,15.3,3.9-1Z" transform="translate(-18.4 -23.7)"/>
  <path class="a" d="M148.8,95.6l-17,8.2-10.6,2.7-3.8-5-3.2-6-2.1-6.6-.7-6.8H116l6.9,16.1,14.5-5.6-1.9-3.6-10.4,4.2L120,81.6l2.2-.7,2.1-1,2.7-2.2,2-3,1.4-3.7.7-4.5-4-.3-.5,3.5-1,2.9-1.5,2.3-1.9,1.6-2.3,1-5.2.7h-2.8l1-3,1.5-2.7,2-2.4,2.5-2.1-2.3-3.3-3.5,3.1-2.7,3.7-1.8,4.2-1,4.6.2,7.7,2,7.4-5.5,2.5,1.1,3.9,6-2.6,5.5,8.7-4.9,1.4L95.9,118l-7.1,7.4-9,20.3-2.1-1.6L75.3,143l-2.6-.5H69.9l-16.2,4.7-4.8.2-4.6-.8L40,145l-3.8-2.6,7.3-8.1,4.1,2.7,4.7,1.5,5.3.3,5.9-.9-.9-3.9-5.4.8-4.7-.4-4.1-1.5L45,130l-3-3.9-2.1-4.4-.8-4.3.9-3.7,2.6,1.5,6.1,7,4.9,3.8,5.2,1.5,2.2-.3,2.3-.8,2-1.1,1.4-1.3-3.2-2.5-.7.6-2.7,1.1-1.5.2-3-1L49,116.5l-2.6-3.3-2.5-2.1-7.5-3.3-2.7-.6-.3,4,3,.8-1.2,4.6.6,5,2,5,3,4.6-7.3,8.1L26,125.7,23,113l-.2-11.8,3.5-16.1,4.5-9.6L33.9,71l6.4,4.7-4.6,8.2L35,86.3l.4,2.3L43,101.9l3.6-1.9-7-11.7L39,86.4l4.1-7.8,7.6,10.3,6.1,25.2,4-.5-1.5-9.8,7.6-.5-.2,8.4h4L71,94.6,69,83.4l-3.8,1.4,1.5,6.8.4,7.8-8.5.6L54.3,87.2l-2.9-4.5,4.5-5.3,1.8.8,1.9.5h2.1l2.2-.3,4.3-2.3,2.9-3.8,2.8-9.1-4-.7-1.2,4.8L67.2,71l-1.9,2.4L63,74.6l-2.7.2L57,73.4l-3.8-3.8L49,62.5l-3.6,1.8,2.8,5.2,4.4,5.6-3.8,4.3L43,73l-6.4-4.9L48.8,57.2l-3-2.7L30.2,69.1l-5.6,9.2L20.4,90.1l-2,13.9.9,13.2L23,129.6,29.5,141l4.9,5.1,6,3.5,6.7,1.8h7.1l16.3-4.7h2.6l2.2.9,1.8,1.4,1.3,1.8-.4,6.7.5,3.4,1.1,3.4,4.9,5.2,7.3,3.4,25.1,4.8H124l7.2-1.4,3-1.3,3.8,6.2,4.4,4.4,5.2,3.3,9.6,19.4,5,20.2,3.6-1.8L161,206.8l-7.9-16,5.1.5,7.6-1.3,22.5-10.7,1.9,3.2,3.7-1.6-1.4-2.6-2.5-2.9-5.3-3.4-6.8-2.9-1.5,3.8,8.5,3.8-20.3,9.4-6.6,1.1-3.5-.3-3.6-1.1L148,184l-3.2-2.3,8.6-3.6,3-.5,3.2.3,3,1.1,2.6,2.1,3.1-2.6-3.2-2.7-3.9-1.7-4.4-.6-4.5.7-10.5,4.1-3.5-5.7,7.7-4.7,17.4-2.6,1.7,3.3,3.6-1.8-4.7-9.1-3.6,1.8,1,2-10.8,1.2-4.3-6.2-2.9,2.8,3,4.3-1.8.6-14,8-5.5,1.1-16.5-1.1.8-4.5,5.9-10.4,3.5-4,2.7-1.8,2.9-1.1,1.7,2.9,1.1,2.9.4,2.6-.4,2.2-.8,1.1-1.2.9-1.6.6-2,.3.4,4,3.6-.7,2.5-1.3,1.7-1.6,1-1.7.7-3.1-.2-3.3-1-3.2-1.5-3,21.2,3.3,13.3-2.8-1.2-3.9L150,149.2l-6-.7,1.1-13.5-.7-5.4-2.1-4.5-3.2,2.5,1.5,3.6-.6,16.5-12.3-1.8-6,1-5.7,3.3-7,9-3.1,6.1-1.4,6-6.2-1.1,1.1-1.5.8-1.7.5-1.8.2-1.9-.7-4.6L98.1,154l-3.4-4.4L90,146l-2.3,3.3,3.7,3.1,2.8,3.6,1.8,3.7.6,3.6-.2,1.7-.6,1.5-.9,1.3L93.6,169l-6.1-2.7-2.3-1.8-1.5-2-1.4-5.8.4-5.8,9.5-23.3,6.5-6.7,14.7-8.3,19.9-5.2,1,3.8-.7,4.8-2.8,5.1-5.4,4.9-11.8,6.4-.8-1.8-.5-1.9v-1.9l.3-1.7,1.7-2.3,3-2,3.4-1.3,2.8-.3.7-4-4.3.2-4.7,1.8-4.1,3-2.4,3.7-.5,2.6v2.7l.6,2.6,1,2.3-4.4,2.8-3.5,3.2-3-2.1-2.6-1.1-1,3.9,2.6,1.3,5.6,5.1,1.2,2.1,4-.6-.4-1.4-2-3.1-1.4-1.5.7-.9,18.6-10.4,8.7-6.9,3.8-5.9,1.6-6.4-1.4-6.4,13.3-6.7,1.1,5h15.2l4.6,16.2,3.7-1.6-3.7-11.3-.8-6.3,1.2-9.7,2.8-9.2,21.8,22.1,8.3,18.6,2.8,2.6,4,1v-4l-2-.5-1.6-1.5-5-12.8,25.1-8.5,1,5.9-7.2,2.3.6,4,11.3-3.5-2.3-13.9L201,104.1,179,81.9l-2.5-4.4,5.5-14,5.6-9L194,59l3.2-2.4L175.6,43.1l1.2-2.3.7-.9.8-.6-2-3.5-2.7,2.5-1.9,3.5-4.9,20.8,3.8,1.3,3.6-16.8,9.9,5.5-5.8,9.3L166.9,94.1l-.6,5.8-11.2.3-2.2-6.5-2.7-3.9-9.3-7.6-4.4-1.9-1,4.3,3.6,1.7,7.6,6.3Z" transform="translate(-18.4 -23.7)"/>
  <!--<path class="b" d="M61.1,72.9A5.1,5.1,0,1,0,56,67.8a5.1,5.1,0,0,0,5.1,5.1" transform="translate(-18.4 -23.7)"/>-->
</svg>
