<svg xmlns="http://www.w3.org/2000/svg" width="3.23in" height="2.84in" viewBox="0 0 232.4 204.56">
  <title>jaraco_concept_v2 6 (1)</title>
  <g>
    <!--<path d="M216.91,158.33c1.46,5.36.48,11.46-1.71,16.58m-15.67-15.49c-1.46,2-6.34,4.14-8,6.58m-12.2-12.43c3.66,2.92,6.83,6.83,10,10.48,2.44,2.93,5.67,5.11,7.56,8M114.68,47.75c1.95-.48,6.1,1.71,7.32,2.93,0,0,6.06-8.31,8.5-12.7m6.13,52.93a77.68,77.68,0,0,1-12.44,4.87c-1-2.19-6.58-14.14-6.09-14.38M65.19,122.85c-1,1.27-4.15,2.68-6.34,2.68-6.1.24-14.07-11-14.07-11-1.62-2.23-9-5-11.27-5.23M42,76.77c-1.23,1.62-5.12,8.29-5.12,9.75,0,3.17,6.08,11.46,7.8,14.63m23.16.24c-2.93.25-6.74,0-9.45.73m8.72-18c2.93,7.8,1.71,20,1.71,27.8m85.33,9.5c-2.92,5.13-1,16.1-1,21.46m-51.94-100c-2,2.92-2.19,7.8-3.65,11.21m.73-7.8c-5.85-1.46-13.41,1-19,2.19a47.62,47.62,0,0,0-13.17,4.88c-1.7,1-5.11,4-6.33,4.88M222,109.44c1.71-.25,6.59-2.2,9.27-2.93-.49-2.68-1.71-10-1.71-10S202.71,105.65,198.8,107M177.34,37.51c-3.9,2.2-5.12,9.76-6.09,13.9-.49,2.44-2.29,11.26-2.44,11.7m34.62,5.37a77.19,77.19,0,0,0-11.7,2c-.49,3.41,3.17,8.53,4.63,11.7,1.71,3.66,7.07,10.48,7.07,10.48,9.74-2.08,17.16-8.82,25.25-13.54,2.7-2,4.72-4.71,4.72-7.41-.68-9.44-8.77-14.16-15.51-20.23C205.76,42,194.3,33.23,180.14,27.84c-13.48-5.39-24.94,0-33.7,9.44m2.17,17.27c.49,2.44-.73,6.34-2.19,8.78-2.44,3.9-5.12,5.29-6.09,8.71m17.31-2.75c-2.71-3.16-7.69-4.71-11.8-5.28m65.66,60.55c-7.07,0-7.07-9.2-11.41-18C195.35,96.9,179.7,90.41,174.66,78m-45.42-11.7c-.33,4.54-1.71,9.36-5.83,11.86-3.79,2.29-8.62,2.13-12.87,1.74m92.4-30c8.29,8.77,13.17,18.77,8.78,30.47M225.2,57.81c0-.49-11,6.28-11.53,6.28M165.15,26c-15.6,13.17-1.22,37.79-10.24,53.64M79.09,89c3.9.73,10.48,2.19,11,7.31,0,0,0,10.24,1.22,14.87M111,96.76c.37-.35-4.28,2.14-6.16,2.68m-8.16,2.39c-1.73.66-3.72,1-5.29,2M120.05,108c-10-11-16.58-31.7-2.2-41.94M54.71,75.79c-1,1-4.15,4.15-5.13,6.1M72,62.87c-1,5.36-2.93,12.19-8.54,13.65-8,2-13.16-6.82-16.33-13.16m-13.9,5.36c7.07,2.68,15.6,12.92,19.26,19.51,3.9,7.55,5.36,18.28,6.34,25.84M195.63,57.75c-1.89-2.5-19.19-12.33-22.5-13.6m.07,75.53c-3.41-8.05-5.85-16.34-4.15-25.36a84.36,84.36,0,0,1,5.37-16.82c2.19-4.88,3.66-10.49,5.85-14.87,1.95-3.91,4.63-7.32,6.83-11m-46.57,74.86c4.14,5.36,1.7,16.82,1.22,22.18M95.67,71.89c-.74-.24-3.17.24-4.39.24-2,0-10.49,0-10,1.22m6.83-15.11c-6.34,8-8,18.28-9.27,28.28-.73,5.85,1.22,11.46,1,17.07-.25,7.8-.73,14.87-3.66,22.18-.49,1-.94,2.54-1.71,3.9M116.88,30.2c0,.24.49,5.12.49,6.82-.74,6.59-4.15,12.44-7.81,17.8-3.41,5.12-8.29,9.76-11.21,15.36-2.44,4.64-1,9.51-.73,14.63m8.77,88.75c-1.46-6.09,6.34-17.55,10.73-21.7,9.51-8.29,22.19-.49,32.67-.49,4.15,0,8.78-1.46,12.68-2.68m-55.59.49c-.49-3.17-7.62-9.43-11-10.24m39-32.67c4.39,7.56-1.46,16.82-8.29,21.45-4.88,3.42-10,5.61-15.36,8.05-2.68,1.46-7.8,4.63-8.29,6.83M42.51,132.36c-1.46,1-8.77,9.75-8.77,9.75M63,135.77c-7.08,1.71-14.15,1.22-19.51-4.39-4.88-5.12-8.29-13.41-5.12-18.77m198,2c-3.9,3.41-7.56,3.41-11.46,4.63m-42.67,19c6.58-1.71,13.17-3.66,20.48-2.93,9.27,1.22,30-.24,31-12.68,0-1.46-.74-6.34-1.22-4.87M216,167.05c-4.15-1.22-15.22-5.44-16.93-9.58-1.22-2.68-1.83-5,.25-7.8s15.11,1.46,19.26,1.7a28.08,28.08,0,0,0,20.72-8.29c19.51-19.26,4.86-47.87-6.35-68.11m-54.36,56.17c5.63,8.61,2.26,20.74-5.42,27.69m19.32,22.78a12.74,12.74,0,0,0-3.41-4.88c-2.44-2.44-9.83-5.21-11.46-5.85M158.81,28.23c-3.6.47-7.22.81-10.85,1.09-4.91.37-9.89-.36-14.81-.54a126,126,0,0,0-21.45.94c-20.28,2.77-40.5,9.54-57.51,21m-6.94,5.05c-4.63,5.06-10.7,8.43-15.41,14.5S24.42,83.12,22.4,90.53c-4,16.86-2,34.38,8.76,49.22a23.58,23.58,0,0,0,22.92,9.43c5.39-.67,10.79-3.37,16.18-4.72a9.89,9.89,0,0,1,10.49,5.95m83,12.83c-5.86.77-12.6.77-18.67,2.8-4.72,2-8.77,6.06-14.16,8.09-8.76,2.69-18.2,1.34-27-.68-1.35,0-18.88-2.69-22.25-10.11-4-9.44.67-18.88,4-27.64,4-12.13,14.83-20.22,27-24.94,10.11-3.37,20.22-3.37,29.66-10.11a28.75,28.75,0,0,1,9.84-3.89m-2.44,90.83c2.93,6.58,7.07,12.92,9.76,19.75,2.19,5.85,2.68,15.6,4.87,20m-29.14-54.87c1,.48,3.54,5.49,4.76,7.2,4.15,5.36,11.7,9.75,18.53,9.51,9-.25,23.05-7.26,29.39-11.89m39.32-25.89c8.29,12.43-.24,24.87-10.48,33.4a53,53,0,0,1-15.58,9.51,37,37,0,0,1-17.62,2.34c-6.34-.73-8.35-.07-9.08,6.51-.73,6.09,3.2,11.63,4.52,15a42,42,0,0,0,3.12,6.44" transform="translate(-18.44 -23.68)" fill="none" stroke="#999898" stroke-miterlimit="10" stroke-width="4.05"/>-->
    <path d="M168.21,101.75c-.89.49-12.05.75-14.77.49a34.76,34.76,0,0,0-2.39-7.72c-1.71-3.9-10.29-11.12-14.88-12.19" transform="translate(-18.44 -23.68)" fill="none" stroke="#8a8989" stroke-miterlimit="10" stroke-width="4.45"/>
    <!--<path d="M148.8,47.73a21.25,21.25,0,0,0-1.52-7.7c-.68-1.4-1.91-3.76-3.82-3.31s-3.65,3.31-4.66,4.94a33.68,33.68,0,0,0-3.37,7.25c-.85,2.3-1.63,4.6-2.42,6.91m28.93,102.8c.18.34,3.71,7.08,4.72,9.1M141.3,180.53c3.7-.67,7.41-3,11.46-4.38,4.72-1.35,10.45-.34,13.82,3.71M93.47,171.5c9.54-5.59,4.45-17.62-4.63-23.78m23.41-13.66c-1.71-2.43-2.69-6.58-1.71-9.5,1.22-4.15,9.26-8,13.17-7.32m25.6,47.3c.48,1-4.15-6.1-4.64-6.58m-19.26-9C130,155,132.24,165,121.51,166m62.9-60.95c4.39,5.61,4.64,16.58,0,22.19-3.65,4.14-8,5.85-13.16,6.34-3.41.48-8.05,1.46-8.05,5.6m5.85-6.09c-4.87-11.22-14.38-12.44-24.13-17.8" transform="translate(-18.44 -23.68)" fill="none" stroke="#999898" stroke-miterlimit="10" stroke-width="4.05"/>-->
  </g>
</svg>
