<svg version="1.1" id="Layer_1" xmlns="http://www.w3.org/2000/svg" xmlns:xlink="http://www.w3.org/1999/xlink" x="0px" y="0px"
 viewBox="0 0 230.4 201.6" style="enable-background:new 0 0 230.4 201.6;" xml:space="preserve">
 <path d="M228.5,83.2L214.3,50l0.4-1.4v-1.5l-1.3-5.7l-2.8-4.7l-11.8-10.8L161.1,2.3l-5.9-1.8L149.5,0l-5.7,0.7l-5.6,1.9L92.6,3.9 l-30.8,7.6L35.2,25l2.2,3.3l25.9-13l32.8-7.7l0.4,5.4l-0.9,4.4L77.7,45.5h-0.6l-11.3,0.6l2.3-5.6l3.3-5.1l-3.2-2.6l-4,6.6l-4.4,14.7 l-1.2,10.1L59.3,84l-1.6,10.5l-3.3,9l3.4,2l1.8-4.1l3-11.2l0.7-15.2l-0.9-8.2l4.7,1.7l1.7,1.4l0.7,1.9l1.3,15.1l3.8-1.1l-0.7-5 l4.8-1.8l-1.4-3.7l-3.7,1.3v-5l-1.5-3.8L69.4,65l-3.4-1.6l-3.4-0.9l2.1-12.4l12-0.8h-0.1h-0.1l0.2-0.4v0.4h0l0.5,10.9l3.9-0.2 l-0.7-8.8l0.3-2.4l0.8-2.3l14.9-21.1h1l3.2,1.4l2.8,2.6l10-14.5l-3.5-2l-7.1,10.6l-4.4-1.9l2.4-8.6l-0.4-6.1l30.5,0.2l-4.1,3.8 l-0.7-0.3h-2.1l-1.9,0.9l-1.5,1.3l-4.5,7.4L112,31l3.7,1.3l5.5-13.6l2.6-3.4l0.8-0.5h0.2l0.3,0.3l1,1.8l1,3.3l0.4,3.6l3.9-0.3 l-0.4-4.2l-1.3-4l-0.6-1.2l4.9-4.4l5.1-3.2h0.2l-2.4,5.7L136.7,41l-3.4-1.8l-3.4-1l1.4-4.2l0.2-2.2v-1.8l-3.9,0.7v1.6l-1.1,3.8 l-6.5,9.3l-0.6,1.7l3.8,1.1l0.4-1.1l4.1-5.2l4.4,1.3l2.4,1.2l2,1.6l-0.9,4.2l-1.7,3.9l3.4,2l2.3-5.8l0.8-34l2-6.5l4-5.5h6.6l6.7,1.8 l41.6,27.2l-8,4.5l-3.5-6.6l-5.4-6.6l-2.9,2.7l5.6,7.2l3.3,6.9l0.8,6.9l-1.5,7l3.7,1.4l1.7-7.5l-0.6-7.5l10.1-5.7l4.3,5.1l1.4,3 l0.7,3.4l-0.3,1.4l-0.8,1.4l-1.2,1.5l-16.1,10.5l-8.5,3.5l-10.2-18l9.6-1.5l-0.2-3.9L170,44.3l-0.2,1.4v2.5l6.5,13.5l6.1,8.5 l11.3-4.1l15.6-9.8l2.7-2.4l13.4,33l-0.2,15.6l-7.9,13.7l-4.3,3.4l-4.5,2.5l-4.9,1.4l-5.1,0.4l-15.3-2.7l-3.4,0.3l-2.1,1.5l-1.4,2.6 l-0.4,2.5l0.4,2.4l1.1,2.7l-6,4.5l-10.4-11l2.1-5.8l0.6-6.1l9.8-2.3l23.1-0.6l7.6-1.9l6.3-3.4l2-1.9l1.4-2.1l1-2.4l0.5-2.7l-0.6-4.5 l2.6-1.9l-2.7-3.1l-1.9,1.4l-8.7,2.9l1.2,3.7l5.7-1.5l0.3,2.9l-0.3,1.8l-0.7,1.5l-1,1.5l-1.3,1.3l-5.6,3l-13.6,2l-10.9-0.5 l-14.7,2.9l-1.3-3.5l4.4-3.8l2.9-5.4l0.9-6.6l-0.9-6.7l-2.9-5.6l-3.2,2.5l2.2,4.4l0.8,5.3l-0.7,5.3l-2.2,4.2l-2.4,2.3l-2.7,1.6 l-3.2,1.2l-3.9,0.6l-3.4-5.4l-4.2-3.8l-16.8-8.6l-2,3.5l8.1,3.8l-1.1,3.6l0.2,17.8h3.9l-0.3-16.8l0.9-3.1l6,3.8l2.5,2.6l2.2,3.4 l-2,0.9l-1.7,1.3l-1.3,1.9l-0.4,2.5h3.9l0.4-1.3l1.1-1l1.9-0.8l9.2-1.9l1.4,6l-0.8,6.2l-2.7,5.8l-3.9,4.7l2.7,3l4-4.6l16.3,17.3 l3.4-2.2l-4.4-4.8l5.9-4.3l14.7,7.1l-1.7,5.1l3.7,1.6l2.4-9.1v-4.4l-0.7-4.1l-3.8,1.1l0.6,5.8l-9-3.6l-3.5-2.3l-2-2.2l-0.7-1.6 l-0.2-1.4v-1.3l0.8-1.4l1.9-0.2l17.2,2.7l5.3-0.7l2.9,9.1l-2.2,8.4l-5,7.1l-9.8,8.7l-7,4.2l-7.5,3l-8.2,1.1l-9.1-0.4l-2,0.4l-1.8,1 l-1.1,1.1l-0.8,1.5l-1,4.4v3.7l7.8,18.6l3.4-1.9l-6.5-14.2l-0.7-2.9v-3l0.6-3l0.4-0.9l0.4-0.6l0.9-0.3l9.6,0.2l9.2-1.2l8.2-3.3 l7.5-4.4l12.8-12.1l4.7-8.7l1.1-8.7l-2.8-8.3l5.6-2.8l5.1-4.1l9.3-17L228.5,83.2z M64.9,49.9h-0.3l0.3-1.3V49.9z M193.4,38.2 l-0.2-0.4h0.2V38.2z M203.6,35.2L203.6,35.2l0.4,0.2L203.6,35.2z M77.3,29.2l1.5-5.1l-3.4-0.2l-10.7,1.8l-15.6,5.3l-6,4.7l-2.4-3.3 l5.3-4.2l4.8-2.6l25-5.8l3.9,0.4l1.2-2.4l3.4,2.2l-3.4,10.7L77.3,29.2z M139.1,165.2l-5-0.6l7.8,15.8l4.7,19.5l-3.5,1.8l-4.8-19.8 l-9.5-19.1l-5.2-3.4l-4.3-4.3l-3.7-6.1l-3,1.3l-7.1,1.5h-7.1L73.6,147l-7.2-3.4l-4.8-5.1l-1.2-3.4l-0.5-3.4l0.4-6.5l-1.3-1.8 l-1.8-1.5l-2.2-0.9h-2.7l-16.1,4.6h-7l-6.6-1.8l-6-3.4l-4.8-5l-6.4-11.1L2,92.1L1.1,79L3,65.4l4.1-11.6l5.5-9.1L28,30.2l2.9,2.8 L18.9,43.7l6.3,4.8l5.7,6.2l3.7-4.2L30.4,45l-2.9-5l3.6-1.8l4.2,7L39,49l3.3,1.2h2.7l2.4-1.3l1.9-2.4l1.6-3.4l1.1-4.8l3.9,0.7 L53,47.8l-2.9,3.7l-4.2,2.4l-2.2,0.3h-2.1l-2-0.5L37.9,53l-4.4,5.1l2.9,4.4l4.2,12.6l8.4-0.6l-0.4-7.7l-1.5-6.7l3.7-1.4l1.9,11v17 h-4l0.2-8.3l-7.5,0.5l1.6,9.7l-4,0.5l-6-24.7l-7.5-10.2L21.3,62l0.6,1.9l6.9,11.5l-3.5,1.9l-7.5-13.1l-0.4-2.3l0.6-2.4l4.6-8.1 l-6.3-4.7l-3.2,4.4l-4.3,9.5L5.3,76.5v11.6l3.1,12.4l7.4,13.5l7.2-8l-3-4.5l-2-4.9l-0.6-4.9l1.3-4.5l-3.1-0.8l0.4-4l2.7,0.7l7.4,3.3 l2.5,2.1l2.6,3.3l6.5,5.8l3,1l1.6-0.2l2.7-1.1l0.7-0.6l3.2,2.5l-1.5,1.3l-2,1.1l-2.2,0.8l-2.2,0.3l-5.2-1.6l-4.8-3.7l-5.9-6.9 l-2.6-1.5l-0.9,3.6l0.7,4.2l2.1,4.3l3,3.8l3.4,2.7l4,1.5l4.6,0.4l5.2-0.8l1,3.8l-5.8,0.9l-5.2-0.3l-4.6-1.5l-4-2.6l-7.2,8l3.7,2.6 l4.2,1.7l4.5,0.7l4.8-0.2l16-4.6h2.7l2.6,0.5l2.5,1.1l2.1,1.7l8.9-20l6.9-7.3l15.9-9l4.8-1.5l-5.4-8.6l-5.9,2.7l-1.1-3.8l5.5-2.5 l-2-7.2l-0.3-7.7l1-4.5l1.9-4.1l2.7-3.5l3.4-3.1l2.3,3.3l-2.5,2.1l-2,2.4l-1.5,2.8l-0.9,3H96l5.2-0.6l2.3-1l1.9-1.7l1.4-2.2l1-2.9 l0.5-3.4l4,0.3l-0.7,4.4l-1.4,3.6l-2,3l-2.7,2.2l-2.1,1.1l-2.2,0.6l5,11.5l10.2-4.1l1.9,3.5l-14.3,5.5l-6.8-15.9h-4.5l0.6,6.6 l2.2,6.5l3.2,5.9l3.6,4.9l10.5-2.8l16.8-8.1l-2.1-2.9l-7.5-6.2l-3.5-1.7l1-4.2l4.3,1.9l9.2,7.5l2.7,3.8l2.2,6.4l11-0.3l0.6-5.8 l11.2-31.7l5.6-9.2l-9.7-5.4l-3.6,16.7l-3.7-1.3l4.8-20.5l1.9-3.4l2.7-2.4l1.9,3.4l-0.8,0.6l-0.7,0.9l-1.2,2.3l21.3,13.2l-3.2,2.5 l-6.2-4.4l-5.5,8.9L156.9,53l2.5,4.3l21.6,21.9l29.7-10.1l2.1,12.2l0,0.1l0.3,1.8l-11,3.4l-0.6-3.9l7.1-2.3l-1-5.8l-24.6,8.4 l4.9,12.6l1.6,1.6l2,0.4v4l-3.9-1l-2.8-2.6l-8.2-18.2l-21.5-21.8l-2.8,9.1l-1.3,9.6l0.8,6.2l3.7,11.1l-3.7,1.6l-4.5-16.1h-15l-1.1-5 L118,81.1l1.4,6.3l-1.6,6.3l-3.7,5.8l-8.7,6.8l-18.2,10.2l-0.8,0.9l1.4,1.5l2,3.1l0.5,1.4l-3.9,0.6l-1.2-2.2l-5.6-5l-2.6-1.3l1-3.8 l2.7,1.1l3,2.1l3.4-3.2l4.4-2.8l-1.1-2.3l-0.6-2.6l-0.2-2.8l0.5-2.6l2.4-3.5l4-3l4.6-1.8l4.2-0.2l-0.8,3.8l-2.8,0.3l-3.4,1.3l-3,2.1 l-1.6,2.2l-0.3,1.7v2l0.5,1.9l0.8,1.8l11.7-6.3l5.2-4.9l2.8-5l0.7-4.7l-1-3.6l-19.6,5.1l-14.5,8.2l-6.4,6.6l-9.4,23l-0.5,5.7 l1.4,5.6l1.5,2.1l2.3,1.7l6,2.7l1.3-1.1l0.9-1.4l0.6-1.5l0.3-1.6l-0.6-3.5l-1.8-3.7l-2.8-3.4l-3.6-3.1l2.3-3.4l4.3,3.7l3.4,4.3 l2.2,4.6l0.6,4.5l-0.2,1.9l-0.5,1.8l-0.8,1.6l-1.1,1.5l6.1,1.1l1.4-5.8l3.1-6l6.9-8.9l5.6-3.3l6-1.1l12.1,1.8l0.6-16.3l-1.5-3.5 l3.2-2.4l2.1,4.4l0.7,5.2l-1.1,13.4l5.9,0.7l11.9-2.6l1.2,3.7l-13.1,2.8l-20.9-3.3l1.5,3l0.9,3.2l0.2,3.3l-0.7,3.1l-1,1.7l-1.7,1.6 l-2.5,1.3l-3.5,0.7l-0.4-3.9l2-0.3l1.6-0.6l1.1-0.9l0.8-1.2l0.4-2.1l-0.3-2.7l-1.1-2.8l-1.8-2.9l-2.8,1.1l-2.7,1.8l-3.5,3.9 L90.4,142l-0.9,4.4l16.4,1.1l5.4-1.2l13.8-7.9l1.8-0.6l-2.9-4.2l2.9-2.8l4.2,6.1l10.6-1.2l-1.1-2l3.5-1.8l4.7,9l-3.5,1.8l-1.7-3.3 l-17.1,2.6l-7.6,4.6l3.4,5.7l10.3-4.1l4.5-0.6l4.2,0.5l3.9,1.7l3.1,2.8l-3.1,2.6L143,153l-3.1-1.1l-3.1-0.3l-3,0.5l-8.5,3.5l3.3,2.3 l3.4,1.8l3.4,1l3.4,0.3l6.5-1.1l20-9.1l-8.5-3.7l1.5-3.7l6.7,2.9l5.2,3.3l2.5,3l1.4,2.6l-3.6,1.6l-1.9-3.2L146.6,164L139.1,165.2z"/>
 </svg>
