<svg version="1.1" id="svg" xmlns="http://www.w3.org/2000/svg" xmlns:xlink="http://www.w3.org/1999/xlink" x="0px" y="0px"
 viewBox="0 0 230.4 201.6">
 <path d="M214.3,50l0.4-1.4v-1.5l-1.3-5.7l-2.8-4.7l-11.8-10.8L161.1,2.3l-5.9-1.8L149.5,0l-5.7,0.7l-5.6,1.9L92.6,3.9l-30.8,7.6L35.2,25l2.2,3.3l25.9-13l32.8-7.7l0.4,5.4l-0.9,4.4L77.7,45.5h-0.6l-11.3,0.6l2.3-5.6l3.3-5.1l-3.2-2.6l-4,6.6l-4.4,14.7l-1.2,10.1L59.3,84l-1.6,10.5l-3.3,9l3.4,2l1.8-4.1l3-11.2l0.7-15.2l-0.9-8.2l4.7,1.7l1.7,1.4l0.7,1.9l1.3,15.1l3.8-1.1l-0.7-5l0,0l4.8-1.8l-1.4-3.7l-3.7,1.3v-5l-1.5-3.8L69.4,65l-3.4-1.6l-3.4-0.9l2.1-12.4l12-0.8l0.5,10.9l3.9-0.2l-0.7-8.8l0.3-2.4l0.8-2.3l14.9-21.1h1l3.2,1.4l2.8,2.6l10-14.5l-3.5-2l-7.1,10.6l-4.4-1.9l2.4-8.6l-0.4-6.1l30.5,0.2l-4.1,3.8l-0.7-0.3h-2.1l-1.9,0.9l-1.5,1.3l-4.5,7.4L112,31l3.7,1.3l5.5-13.6l2.6-3.4l0.8-0.5h0.2l0.3,0.3l1,1.8l1,3.3l0.4,3.6l3.9-0.3l-0.4-4.2l-1.3-4l-0.6-1.2l4.9-4.4l5.1-3.2h0.2l-2.4,5.7L136.7,41l-3.4-1.8l-3.4-1l1.4-4.2l0.2-2.2v-1.8l-3.9,0.7v1.6l-1.1,3.8l-6.5,9.3l-0.6,1.7l3.8,1.1l0.4-1.1l4.1-5.2l4.4,1.3l2.4,1.2l2,1.6l-0.9,4.2l-1.7,3.9l3.4,2l2.3-5.8l0.8-34l2-6.5l4-5.5h6.6l6.7,1.8l41.6,27.2l-8,4.5l-3.5-6.6l-5.4-6.6l-2.9,2.7l5.6,7.2l3.3,6.9l0.8,6.9l-1.5,7l3.7,1.4l1.7-7.5l-0.6-7.5l10.1-5.7l4.3,5.1l1.4,3l0.7,3.4l-0.3,1.4l-0.8,1.4l-1.2,1.5l-16.1,10.5l-8.5,3.5l-10.2-18l9.6-1.5l-0.2-3.9L170,44.3l-0.2,1.4v2.5l6.5,13.5l6.1,8.5l11.3-4.1l15.6-9.8l2.7-2.4l13.4,33l-0.2,15.6l-7.9,13.7l-4.3,3.4l-4.5,2.5l-4.9,1.4l-5.1,0.4l-15.3-2.7l-3.4,0.3l-2.1,1.5l-1.4,2.6l-0.4,2.5l0.4,2.4l1.1,2.7l-6,4.5l-10.4-11l2.1-5.8l0.6-6.1l9.8-2.3l23.1-0.6l7.6-1.9l6.3-3.4l2-1.9l1.4-2.1l1-2.4l0.5-2.7l-0.6-4.5l2.6-1.9l-2.7-3.1l-1.9,1.4l-8.7,2.9l1.2,3.7l5.7-1.5l0.3,2.9l-0.3,1.8l-0.7,1.5l-1,1.5l-1.3,1.3l-5.6,3l-13.6,2l-10.9-0.5l-14.7,2.9l-1.3-3.5l4.4-3.8l2.9-5.4l0.9-6.6l-0.9-6.7l-2.9-5.6l-3.2,2.5l2.2,4.4l0.8,5.3l-0.7,5.3l-2.2,4.2l-2.4,2.3l-2.7,1.6l-3.2,1.2l-3.9,0.6l-3.4-5.4l-4.2-3.8l-16.8-8.6l-2,3.5l8.1,3.8l-1.1,3.6l0.2,17.8h3.9l-0.3-16.8l0.9-3.1l6,3.8l2.5,2.6l2.2,3.4l-2,0.9l-1.7,1.3l-1.3,1.9l-0.4,2.5h3.9l0.4-1.3l1.1-1l1.9-0.8l9.2-1.9l1.4,6l-0.8,6.2l-2.7,5.8l-3.9,4.7l2.7,3l4-4.6l16.3,17.3l3.4-2.2l-4.4-4.8l5.9-4.3l14.7,7.1l-1.7,5.1l3.7,1.6l2.4-9.1v-4.4l-0.7-4.1l-3.8,1.1l0.6,5.8l-9-3.6l-3.5-2.3l-2-2.2l-0.7-1.6l-0.2-1.4v-1.3l0.8-1.4l1.9-0.2l17.2,2.7l5.3-0.7l2.9,9.1l-2.2,8.4l-5,7.1l-9.8,8.7l-7,4.2l-7.5,3l-8.2,1.1l-9.1-0.4l-2,0.4l-1.8,1l-1.1,1.1l-0.8,1.5l-1,4.4v3.7l7.8,18.6l3.4-1.9l-6.5-14.2l-0.7-2.9v-3l0.6-3l0.4-0.9l0.4-0.6l0.9-0.3l9.6,0.2l9.2-1.2l8.2-3.3l7.5-4.4l12.8-12.1l4.7-8.7l1.1-8.7l-2.8-8.3l5.6-2.8l5.1-4.1l9.3-17l-0.7-18.8L214.3,50z M64.7,49.9l0.3-1.3v1.3H64.7z M76.6,49.4L76.6,49.4l0.1-0.4L76.6,49.4L76.6,49.4z"/>
 <path d="M84.4,20l-3.4,10.7l-3.6-1.6l1.5-5.1l-3.4-0.2l-10.7,1.8l-15.6,5.3l-6,4.7l-2.4-3.3l5.3-4.2l4.8-2.6l25-5.8l3.9,0.4l1.2-2.4L84.4,20z"/>
 <path d="M212.6,81.3l-2.1-12.2l-29.7,10.1l-21.6-21.9l-2.5-4.3l5.4-13.8l5.5-8.9l6.2,4.4l3.2-2.5l-21.3-13.2l1.2-2.3l0.7-0.9l0.8-0.6l-1.9-3.4l-2.7,2.4l-1.9,3.4l-4.8,20.5l3.7,1.3l3.6-16.7l9.7,5.4l-5.6,9.2l-11.2,31.7l-0.6,5.8l-11,0.3l-2.2-6.4l-2.7-3.8l-9.2-7.5l-4.3-1.9l-1,4.2l3.5,1.7l7.5,6.2l2.1,2.9l0,0l-16.8,8.1l-10.5,2.8l-3.6-4.9l-3.2-5.9l-2.2-6.5l-0.6-6.6h4.5l6.8,15.9l14.3-5.5l-1.9-3.5l-10.2,4.1l-5-11.5l2.2-0.6l2.1-1.1l2.7-2.2l2-3l1.4-3.6l0.7-4.4l-4-0.3l-0.5,3.4l-1,2.9l-1.4,2.2l-1.9,1.7l-2.3,1L96,53.5h-2.7l0.9-3l1.5-2.8l2-2.4l2.5-2.1l-2.3-3.3l-3.4,3.1l-2.7,3.5l-1.9,4.1l-1,4.5l0.3,7.7l2,7.2l-5.5,2.5l1.1,3.8l5.9-2.7l5.4,8.6L93.2,84l-15.9,9l-6.9,7.3l-8.9,20l-2.1-1.7l-2.5-1.1l-2.6-0.5h-2.7l-16,4.6l-4.8,0.2l-4.5-0.7l-4.2-1.7l-3.7-2.6l7.2-8l4,2.6l4.6,1.5l5.2,0.3l5.8-0.9l-1-3.8l-5.2,0.8l-4.6-0.4l-4-1.5l-3.4-2.7l-3-3.8l-2.1-4.3l-0.7-4.2l0.9-3.6l2.6,1.5l5.9,6.9l4.8,3.7l5.2,1.6l2.2-0.3l2.2-0.8l2-1.1l1.5-1.3l-3.2-2.5l-0.7,0.6l-2.7,1.1l-1.6,0.2l-3-1l-6.5-5.8l-2.6-3.3l-2.5-2.1L18.7,83l-2.7-0.7l-0.4,4l3.1,0.8l-1.3,4.5l0.6,4.9l2,4.9l3,4.5l-7.2,8l-7.4-13.5L5.3,88.1V76.5l3.4-15.9l4.3-9.5l3.2-4.4l6.3,4.7l-4.6,8.1l-0.6,2.4l0.4,2.3l7.5,13.1l3.5-1.9l-6.9-11.5L21.3,62l4.1-7.7l7.5,10.2l6,24.7l4-0.5l-1.6-9.7l7.5-0.5l-0.2,8.3h4v-17l-1.9-11l-3.7,1.4l1.5,6.7l0.4,7.7l-8.4,0.6l-4.2-12.6l-2.9-4.4l4.4-5.1l1.8,0.7l2,0.5h2.1l2.2-0.3l4.2-2.4l2.9-3.7l2.8-8.9l-3.9-0.7l-1.1,4.8l-1.6,3.4l-1.9,2.4l-2.4,1.3h-2.7L39,49l-3.6-3.7l-4.2-7L27.5,40l2.9,5l4.3,5.5L31,54.8l-5.7-6.2l-6.3-4.8L30.9,33L28,30.2L12.6,44.7l-5.5,9.1L3,65.4L1.1,79L2,92.1l3.5,12.2l6.4,11.1l4.8,5l6,3.4l6.6,1.8h7l16.1-4.6h2.7l2.2,0.9l1.8,1.5l1.3,1.8l-0.4,6.5l0.5,3.4l1.2,3.4l4.8,5.1l7.2,3.4l24.7,4.7h7.1l7.1-1.5l3-1.3l3.7,6.1l4.3,4.3l5.2,3.4l9.5,19.1l4.8,19.8l3.5-1.8l-4.7-19.5l-7.8-15.8l5,0.6l7.5-1.3l22.2-10.5l1.9,3.2l3.6-1.6l-1.4-2.6l-2.5-3l-5.2-3.3l-6.7-2.9l-1.5,3.7l8.5,3.7l-20,9.1L139,161l-3.4-0.3l-3.4-1l-3.4-1.8l-3.3-2.3l8.5-3.5l3-0.5l3.1,0.3l3.1,1.1l2.5,2.2l3.1-2.6l-3.1-2.8l-3.9-1.7l-4.2-0.5l-4.5,0.6l-10.3,4.1l-3.4-5.7l7.6-4.6l17.1-2.6l1.7,3.3l3.5-1.8l-4.7-9l-3.5,1.8l1.1,2l-10.6,1.2l-4.2-6.1l-2.9,2.8l2.9,4.2l-1.8,0.6l-13.8,7.9l-5.4,1.2l-16.4-1.1l0.9-4.4l5.7-10.2l3.5-3.9l2.7-1.8l2.8-1.1l1.8,2.9l1.1,2.8l0.3,2.7l-0.4,2.1l-0.8,1.2l-1.1,0.9l-1.6,0.6l-2,0.3l0.4,3.9l3.5-0.7l2.5-1.3l1.7-1.6l1-1.7l0.7-3.1l-0.2-3.3l-0.9-3.2l-1.5-3l20.9,3.3l13.1-2.8l-1.2-3.7l-11.9,2.6l-5.9-0.7l1.1-13.4l-0.7-5.2l-2.1-4.4l-3.2,2.4l1.5,3.5l-0.6,16.3l-12.1-1.8l-6,1.1l-5.6,3.3l-6.9,8.9l-3.1,6l-1.4,5.8l-6.1-1.1l1.1-1.5l0.8-1.6l0.5-1.8l0.2-1.9l-0.6-4.5l-2.2-4.6l-3.4-4.3l-4.3-3.7l-2.3,3.4l3.6,3.1l2.8,3.4l1.8,3.7l0.6,3.5l-0.3,1.6l-0.6,1.5l-0.9,1.4l-1.3,1.1l-6-2.7l-2.3-1.7l-1.5-2.1l-1.4-5.6l0.5-5.7l9.4-23l6.4-6.6l14.5-8.2l19.6-5.1l1,3.6l-0.7,4.7l-2.8,5l-5.2,4.9l-11.7,6.3l-0.8-1.8l-0.5-1.9v-2l0.3-1.7l1.6-2.2l3-2.1l3.4-1.3l2.8-0.3l0.8-3.8l-4.2,0.2l-4.6,1.8l-4,3L90,98.7l-0.5,2.6l0.2,2.8l0.6,2.6l1.1,2.3l-4.4,2.8l-3.4,3.2l-3-2.1l-2.7-1.1l-1,3.8l2.6,1.3l5.6,5l1.2,2.2l3.9-0.6l-0.5-1.4l-2-3.1l-1.4-1.5l0.8-0.9l18.2-10.2l8.7-6.8l3.7-5.8l1.6-6.3l-1.4-6.3l13.1-6.7l1.1,5h15l4.5,16.1l3.7-1.6l-3.7-11.1l-0.8-6.2l1.3-9.6l2.8-9.1l21.5,21.8l8.2,18.2l2.8,2.6l3.9,1v-4l-2-0.4l-1.6-1.6l-4.9-12.6l24.6-8.4l1,5.8l-7.1,2.3l0.6,3.9l11-3.4L212.6,81.3L212.6,81.3z"/>
</svg>
